<?xml version="1.0" encoding="utf-8"?>
<!-- Generator: Adobe Illustrator 18.1.1, SVG Export Plug-In . SVG Version: 6.00 Build 0)  -->
<svg version="1.1" id="Layer_1" xmlns="http://www.w3.org/2000/svg" xmlns:xlink="http://www.w3.org/1999/xlink" x="0px" y="0px"
	 viewBox="0 0 499.75 49.669" enable-background="new 0 0 499.75 49.669" xml:space="preserve">
<linearGradient id="SVGID_1_" gradientUnits="userSpaceOnUse" x1="9.9519" y1="11.8023" x2="226.0388" y2="37.1866">
	<stop  offset="0.2" style="stop-color:#0A4F8B"/>
	<stop  offset="0.2704" style="stop-color:#0A508A"/>
	<stop  offset="0.3221" style="stop-color:#0D5288"/>
	<stop  offset="0.3677" style="stop-color:#135783"/>
	<stop  offset="0.4098" style="stop-color:#1C5D7C"/>
	<stop  offset="0.4495" style="stop-color:#266572"/>
	<stop  offset="0.4875" style="stop-color:#316E66"/>
	<stop  offset="0.5234" style="stop-color:#3C7953"/>
	<stop  offset="0.5355" style="stop-color:#3F7D4B"/>
	<stop  offset="0.624" style="stop-color:#418654"/>
	<stop  offset="0.7405" style="stop-color:#419867"/>
	<stop  offset="0.9419" style="stop-color:#8F6E53"/>
</linearGradient>
<path fill="url(#SVGID_1_)" d="M241.779,13.428H0V0h241.779V13.428z M241.779,18.122H0v13.426h241.779V18.122z M241.779,36.241H0
	v13.428h241.779V36.241z"/>
<g>
	<path fill="#004574" d="M264.411,17.523c-0.519,0.568-1.046,0.99-1.581,1.264c-0.746,0.393-1.547,0.59-2.4,0.59
		c-0.878,0-1.719-0.217-2.521-0.648c-0.803-0.434-1.459-1.119-1.969-2.057c-0.511-0.936-0.766-2.213-0.766-3.832
		c0-1.686,0.268-3.041,0.803-4.062c0.536-1.023,1.27-1.775,2.201-2.26c0.932-0.484,1.927-0.727,2.986-0.727
		c0.969,0,1.821,0.188,2.559,0.564c0.738,0.375,1.332,0.889,1.782,1.537c0.29,0.416,0.535,0.992,0.735,1.727l-2.043,0.701
		c-0.233-0.707-0.533-1.236-0.897-1.59c-0.525-0.502-1.203-0.752-2.034-0.752c-0.985,0-1.796,0.328-2.431,0.986
		c-0.636,0.658-0.953,1.844-0.953,3.559c0,1.203,0.131,2.117,0.393,2.744c0.262,0.627,0.652,1.105,1.172,1.436
		c0.518,0.33,1.072,0.494,1.666,0.494c0.443,0,0.881-0.09,1.311-0.273c0.431-0.182,0.778-0.404,1.043-0.67
		c0.266-0.266,0.465-0.529,0.598-0.795c0.135-0.266,0.25-0.619,0.347-1.064h-3.418v-1.955h5.485v6.682h-2.067V17.523z"/>
	<path fill="#004574" d="M269.734,6.047h2.555v10.818h5.4v2.256h-7.955V6.047z"/>
	<path fill="#004574" d="M284.791,5.791c1.23,0,2.223,0.205,2.975,0.615c0.984,0.535,1.736,1.305,2.256,2.307
		c0.518,1.002,0.777,2.318,0.777,3.947c0,2.211-0.522,3.883-1.565,5.016c-1.042,1.135-2.421,1.701-4.135,1.701
		c-1.732,0-3.133-0.576-4.2-1.73c-1.068-1.154-1.603-2.838-1.603-5.055c0-1.332,0.217-2.529,0.65-3.588
		c0.233-0.588,0.591-1.135,1.073-1.641c0.48-0.508,1.042-0.896,1.683-1.166C283.344,5.926,284.039,5.791,284.791,5.791z
		 M285.048,8.029c-0.884,0-1.612,0.354-2.188,1.061c-0.575,0.705-0.863,1.873-0.863,3.502c0,1.602,0.292,2.752,0.876,3.453
		c0.584,0.701,1.332,1.051,2.243,1.051c0.866,0,1.587-0.35,2.162-1.047c0.575-0.697,0.862-1.842,0.862-3.432
		c0-1.777-0.35-3.027-1.051-3.75C286.549,8.309,285.868,8.029,285.048,8.029z"/>
	<path fill="#004574" d="M293.892,6.047h5.57c1.322,0,2.305,0.203,2.948,0.608c0.923,0.58,1.384,1.418,1.384,2.512
		c0,0.82-0.275,1.512-0.828,2.076c-0.371,0.377-0.912,0.689-1.623,0.939c0.609,0.184,1.072,0.395,1.393,0.633
		c0.443,0.33,0.789,0.738,1.033,1.223c0.245,0.484,0.367,0.979,0.367,1.486c0,0.592-0.153,1.166-0.461,1.721
		c-0.308,0.557-0.798,1.008-1.47,1.355c-0.673,0.348-1.526,0.521-2.564,0.521h-5.75V6.047z M296.447,8.029v3.145h2.742
		c0.587,0,1.097-0.182,1.529-0.547c0.279-0.234,0.42-0.584,0.42-1.051c0-0.461-0.163-0.834-0.488-1.119
		c-0.324-0.285-0.834-0.428-1.529-0.428H296.447z M296.447,13.191v3.922h2.059c1.065,0,1.823-0.183,2.273-0.553
		c0.449-0.367,0.675-0.85,0.675-1.447c0-0.553-0.205-1.012-0.615-1.375c-0.41-0.365-1.009-0.547-1.794-0.547H296.447z"/>
	<path fill="#004574" d="M309.803,6.047h2.728l4.256,13.074h-2.529l-0.992-3.068h-4.179l-0.989,3.068h-2.529L309.803,6.047z
		 M311.174,9.584l-1.499,4.564h2.975L311.174,9.584z"/>
	<path fill="#004574" d="M319.32,6.047h2.556v10.818h5.4v2.256h-7.956V6.047z"/>
	<path fill="#004574" d="M336.317,6.047h2.718l5.365,8.775V6.047h2.547v13.074H344.4l-5.512-9.117v9.117h-2.571V6.047z"/>
	<path fill="#004574" d="M350.75,6.047h8.767V8.32h-6.195v2.879h3.777v1.939h-3.777v3.727h6.195v2.256h-8.767V6.047z"/>
	<path fill="#004574" d="M361.645,6.047h9.912v2.248h-3.683v10.826h-2.564V8.295h-3.666V6.047z"/>
	<path fill="#004574" d="M373.129,6.047h2.461l1.781,7.486l1.795-7.486h2.932l1.803,7.545l1.762-7.545h2.473l-3.098,13.074h-2.018
		l-2.367-9.98l-2.409,9.98h-2.009L373.129,6.047z"/>
	<path fill="#004574" d="M395.234,5.791c1.23,0,2.223,0.205,2.975,0.615c0.984,0.535,1.736,1.305,2.256,2.307
		c0.518,1.002,0.777,2.318,0.777,3.947c0,2.211-0.521,3.883-1.564,5.016c-1.042,1.135-2.421,1.701-4.135,1.701
		c-1.732,0-3.133-0.576-4.2-1.73c-1.068-1.154-1.602-2.838-1.602-5.055c0-1.332,0.217-2.529,0.649-3.588
		c0.233-0.588,0.591-1.135,1.073-1.641c0.48-0.508,1.042-0.896,1.683-1.166C393.787,5.926,394.482,5.791,395.234,5.791z
		 M395.491,8.029c-0.884,0-1.612,0.354-2.188,1.061c-0.575,0.705-0.863,1.873-0.863,3.502c0,1.602,0.292,2.752,0.876,3.453
		c0.584,0.701,1.332,1.051,2.243,1.051c0.866,0,1.587-0.35,2.162-1.047c0.575-0.697,0.862-1.842,0.862-3.432
		c0-1.777-0.35-3.027-1.051-3.75C396.992,8.309,396.311,8.029,395.491,8.029z"/>
	<path fill="#004574" d="M404.369,6.047h3.529c1.897,0,3.209,0.143,3.935,0.428c0.726,0.285,1.291,0.754,1.695,1.41
		c0.404,0.654,0.607,1.406,0.607,2.256c0,0.779-0.184,1.426-0.547,1.936c-0.365,0.51-0.998,0.947-1.897,1.311l2.352,5.734h-2.548
		l-2.192-5.256h-2.354v5.256h-2.58V6.047z M406.949,8.328v3.521h2.061c0.752,0,1.393-0.215,1.922-0.641
		c0.348-0.285,0.522-0.682,0.522-1.189c0-0.482-0.193-0.887-0.581-1.209c-0.388-0.32-1.009-0.482-1.862-0.482H406.949z"/>
	<path fill="#004574" d="M417.307,6.047h2.572v5.785l4.715-5.785h2.826l-4.084,5.057l4.387,8.018h-2.509l-3.368-6.17l-1.967,2.436
		v3.734h-2.572V6.047z"/>
	<path fill="#004574" d="M435.568,6.047h8.023v2.256h-5.434v3.418h3.135v2.256h-3.135v5.145h-2.59V6.047z"/>
	<path fill="#004574" d="M451.266,5.791c1.23,0,2.222,0.205,2.974,0.615c0.985,0.535,1.737,1.305,2.256,2.307
		c0.518,1.002,0.778,2.318,0.778,3.947c0,2.211-0.521,3.883-1.564,5.016c-1.043,1.135-2.422,1.701-4.136,1.701
		c-1.731,0-3.132-0.576-4.2-1.73c-1.068-1.154-1.602-2.838-1.602-5.055c0-1.332,0.217-2.529,0.649-3.588
		c0.234-0.588,0.592-1.135,1.073-1.641c0.481-0.508,1.042-0.896,1.683-1.166C449.817,5.926,450.514,5.791,451.266,5.791z
		 M451.521,8.029c-0.883,0-1.611,0.354-2.188,1.061c-0.575,0.705-0.863,1.873-0.863,3.502c0,1.602,0.293,2.752,0.877,3.453
		c0.584,0.701,1.331,1.051,2.242,1.051c0.866,0,1.587-0.35,2.162-1.047c0.576-0.697,0.863-1.842,0.863-3.432
		c0-1.777-0.35-3.027-1.051-3.75C453.023,8.309,452.342,8.029,451.521,8.029z"/>
	<path fill="#004574" d="M460.4,6.047h3.529c1.896,0,3.208,0.143,3.935,0.428c0.726,0.285,1.292,0.754,1.696,1.41
		c0.404,0.654,0.607,1.406,0.607,2.256c0,0.779-0.183,1.426-0.547,1.936c-0.364,0.51-0.997,0.947-1.897,1.311l2.352,5.734h-2.548
		l-2.192-5.256h-2.354v5.256h-2.58V6.047z M462.98,8.328v3.521h2.06c0.752,0,1.393-0.215,1.923-0.641
		c0.348-0.285,0.521-0.682,0.521-1.189c0-0.482-0.194-0.887-0.582-1.209c-0.387-0.32-1.008-0.482-1.862-0.482H462.98z"/>
	<path fill="#004574" d="M258.935,29.047h2.728l4.257,13.074h-2.529l-0.992-3.068h-4.18l-0.99,3.068h-2.529L258.935,29.047z
		 M260.305,32.584l-1.498,4.564h2.975L260.305,32.584z"/>
	<path fill="#004574" d="M268.521,29.047h4.75c1.129,0,2.137,0.275,3.025,0.824c0.889,0.551,1.566,1.328,2.029,2.334
		c0.465,1.004,0.697,2.094,0.697,3.268c0,1.168-0.201,2.221-0.603,3.158c-0.4,0.936-0.915,1.672-1.541,2.209
		c-0.451,0.381-1.035,0.689-1.752,0.926c-0.719,0.236-1.477,0.356-2.273,0.356h-4.332V29.047z M271.127,31.252v8.578h1.777
		c0.633,0,1.195-0.168,1.688-0.508c0.493-0.34,0.873-0.785,1.141-1.338c0.389-0.785,0.582-1.642,0.582-2.572
		c0-1.264-0.367-2.274-1.102-3.029c-0.735-0.754-1.678-1.131-2.829-1.131H271.127z"/>
	<path fill="#004574" d="M280.002,29.047h2.504l2.726,8.99l2.76-8.99h2.466l-3.979,13.074h-2.486L280.002,29.047z"/>
	<path fill="#004574" d="M295.482,29.047h2.728l4.257,13.074h-2.529l-0.992-3.068h-4.18l-0.99,3.068h-2.529L295.482,29.047z
		 M296.852,32.584l-1.498,4.564h2.975L296.852,32.584z"/>
	<path fill="#004574" d="M305.025,29.047h2.719l5.365,8.775v-8.775h2.547v13.074h-2.547l-5.512-9.117v9.117h-2.572V29.047z"/>
	<path fill="#004574" d="M329.31,38.379c-0.183,0.734-0.414,1.318-0.692,1.75c-0.45,0.701-1.032,1.252-1.747,1.65
		c-0.715,0.398-1.543,0.598-2.483,0.598c-1.003,0-1.96-0.252-2.871-0.756c-0.912-0.504-1.603-1.258-2.076-2.26
		c-0.474-1.004-0.709-2.186-0.709-3.547c0-1.418,0.24-2.672,0.721-3.76c0.482-1.088,1.182-1.904,2.098-2.447
		c0.918-0.545,1.883-0.816,2.897-0.816c0.746,0,1.477,0.164,2.192,0.496c0.715,0.33,1.305,0.797,1.772,1.4
		c0.325,0.422,0.584,0.98,0.778,1.676l-2.393,0.684c-0.172-0.707-0.475-1.242-0.91-1.603c-0.436-0.361-0.959-0.543-1.568-0.543
		c-0.912,0-1.621,0.441-2.128,1.326c-0.507,0.883-0.761,2.035-0.761,3.459c0,0.9,0.117,1.689,0.351,2.367s0.556,1.178,0.966,1.5
		c0.41,0.322,0.854,0.482,1.332,0.482c0.719,0,1.359-0.258,1.924-0.777c0.398-0.359,0.711-0.877,0.939-1.555L329.31,38.379z"/>
	<path fill="#004574" d="M332.233,29.047H341v2.273h-6.195v2.879h3.777v1.939h-3.777v3.727H341v2.256h-8.767V29.047z"/>
	<path fill="#004574" d="M344.085,29.047h4.751c1.128,0,2.137,0.275,3.025,0.824c0.889,0.551,1.564,1.328,2.029,2.334
		c0.464,1.004,0.696,2.094,0.696,3.268c0,1.168-0.2,2.221-0.603,3.158c-0.401,0.936-0.916,1.672-1.542,2.209
		c-0.45,0.381-1.034,0.689-1.752,0.926c-0.718,0.236-1.476,0.356-2.272,0.356h-4.333V29.047z M346.691,31.252v8.578h1.777
		c0.633,0,1.195-0.168,1.688-0.508c0.492-0.34,0.873-0.785,1.141-1.338c0.388-0.785,0.581-1.642,0.581-2.572
		c0-1.264-0.367-2.274-1.103-3.029c-0.734-0.754-1.678-1.131-2.828-1.131H346.691z"/>
	<path fill="#004574" d="M366.352,29.047h4.084l2.175,8.102l2.192-8.102h4.084v13.074h-2.453V30.482l-3.15,11.639h-1.355
		l-3.15-11.639v11.639h-2.426V29.047z"/>
	<path fill="#004574" d="M385.639,29.047h2.728l4.257,13.074h-2.529l-0.992-3.068h-4.18l-0.99,3.068h-2.529L385.639,29.047z
		 M387.008,32.584l-1.498,4.564h2.975L387.008,32.584z"/>
	<path fill="#004574" d="M395.182,29.047h2.719l5.365,8.775v-8.775h2.546v13.074h-2.546l-5.512-9.117v9.117h-2.572V29.047z"/>
	<path fill="#004574" d="M412.444,29.047h2.727l4.257,13.074h-2.529l-0.992-3.068h-4.179l-0.99,3.068h-2.529L412.444,29.047z
		 M413.814,32.584l-1.498,4.564h2.975L413.814,32.584z"/>
	<path fill="#004574" d="M430.028,40.523c-0.519,0.568-1.046,0.99-1.581,1.264c-0.746,0.393-1.547,0.59-2.4,0.59
		c-0.878,0-1.719-0.217-2.521-0.648c-0.803-0.434-1.459-1.119-1.969-2.057c-0.511-0.935-0.766-2.213-0.766-3.832
		c0-1.686,0.268-3.041,0.803-4.063c0.536-1.023,1.27-1.775,2.201-2.26c0.932-0.484,1.927-0.726,2.986-0.726
		c0.969,0,1.821,0.188,2.559,0.564c0.738,0.375,1.332,0.889,1.782,1.537c0.29,0.416,0.535,0.992,0.735,1.727l-2.043,0.701
		c-0.233-0.707-0.533-1.236-0.896-1.59c-0.525-0.502-1.203-0.752-2.034-0.752c-0.985,0-1.796,0.328-2.431,0.986
		c-0.636,0.658-0.953,1.844-0.953,3.559c0,1.203,0.131,2.117,0.392,2.744c0.262,0.627,0.652,1.105,1.172,1.436
		c0.518,0.33,1.072,0.494,1.666,0.494c0.443,0,0.881-0.09,1.311-0.273c0.431-0.182,0.778-0.404,1.043-0.67
		c0.266-0.266,0.465-0.529,0.598-0.795c0.135-0.266,0.25-0.619,0.347-1.064h-3.418v-1.955h5.485v6.682h-2.067V40.523z"/>
	<path fill="#004574" d="M435.412,29.047h8.768v2.273h-6.195v2.879h3.777v1.939h-3.777v3.727h6.195v2.256h-8.768V29.047z"/>
	<path fill="#004574" d="M447.188,29.047h4.084l2.175,8.102l2.192-8.102h4.084v13.074h-2.453V30.482l-3.15,11.639h-1.355
		l-3.15-11.639v11.639h-2.426V29.047z"/>
	<path fill="#004574" d="M463.474,29.047h8.767v2.273h-6.195v2.879h3.777v1.939h-3.777v3.727h6.195v2.256h-8.767V29.047z"/>
	<path fill="#004574" d="M475.283,29.047h2.718l5.365,8.775v-8.775h2.546v13.074h-2.546l-5.512-9.117v9.117h-2.571V29.047z"/>
	<path fill="#004574" d="M488.767,29.047h9.912v2.248h-3.683v10.826h-2.563V31.295h-3.666V29.047z"/>
</g>
</svg>
