<?xml version="1.0" encoding="UTF-8"?>
<svg width="66px" height="30px" viewBox="0 0 66 30" version="1.1" xmlns="http://www.w3.org/2000/svg" xmlns:xlink="http://www.w3.org/1999/xlink">
    <!-- Generator: Sketch 41.2 (35397) - http://www.bohemiancoding.com/sketch -->
    <title>Logo</title>
    <desc>Created with Sketch.</desc>
    <defs>
        <polygon id="path-1" points="0.0860411416 23.2911392 31.6739758 23.2911392 31.6739758 0.0989852041 0.0860411416 0.0989852041 0.0860411416 23.2911392"></polygon>
        <polygon id="path-3" points="13.6537067 14.9271105 13.6537067 0.0387444396 0.000122131917 0.0387444396 0.000122131917 14.9271105 13.6537067 14.9271105"></polygon>
        <polygon id="path-5" points="43.5628953 0.0734177215 4.52059621e-05 0.0734177215 4.52059621e-05 24.7535589 43.5628953 24.7535589 43.5628953 0.0734177215"></polygon>
    </defs>
    <g id="Page-1" stroke="none" stroke-width="1" fill="none" fill-rule="evenodd">
        <g id="Homepage" transform="translate(-171.000000, -31.000000)">
            <g id="Logo" transform="translate(171.000000, 31.000000)">
                <g id="Group-3" transform="translate(24.881587, 6.635443)">
                    <mask id="mask-2" fill="white">
                        <use xlink:href="#path-1"></use>
                    </mask>
                    <g id="Clip-2"></g>
                    <path d="M25.4797967,20.5823291 C26.2168816,20.1392911 26.5703541,19.0949873 26.5703541,19.0949873 C24.7725953,19.057519 24.0809128,17.4992911 23.815552,16.2282785 C25.9685788,16.0666329 27.666683,16.5554937 27.7887823,17.8608101 C27.9811657,19.9177722 25.4797967,20.5823291 25.4797967,20.5823291 M23.6539499,14.5278987 L23.6531804,14.5278987 L23.6425352,14.5352405 C23.5200511,13.7567595 22.3485644,6.06283544 26.8266088,0.466253165 C23.2584097,-0.56564557 20.9845661,0.466 19.3880403,4.98106329 C17.7207175,9.69625316 19.0674013,15.076 19.0674013,15.076 C17.8169092,15.4241013 16.4381615,15.8354937 10.0253813,17.6076456 C3.61260121,19.3797975 0.758914052,16.9747342 0.758914052,16.9747342 C-2.12683701,24.4747342 4.89515724,24.1582785 9.96125354,21.8165063 C15.0273498,19.4747342 19.8583536,17.1223291 19.8583536,17.1223291 C19.8583536,17.1227089 21.4402582,22.5232152 27.6605267,22.5232152 C33.8807952,22.5232152 33.1128006,14.1491646 23.6539499,14.5278987" id="Fill-1" fill="#0DAFAC" mask="url(#mask-2)"></path>
                </g>
                <g id="Group-6" transform="translate(51.430497, 6.129114)">
                    <mask id="mask-4" fill="white">
                        <use xlink:href="#path-3"></use>
                    </mask>
                    <g id="Clip-5"></g>
                    <path d="M13.5648127,11.0316709 C13.1800459,10.4100253 12.0534487,11.2455949 11.4711683,11.6048354 C11.4696292,11.6057215 11.4680901,11.606481 11.4666793,11.6073671 C10.0046937,12.573443 8.22707106,13.2368608 6.78304123,12.9868608 C4.7459575,12.644962 4.01772218,9.56559494 4.96501806,6.39356962 C5.90949232,3.37622785 7.5469316,1.01217722 9.00083711,1.16787342 C10.0903685,1.2615443 10.4930911,2.13281013 10.309429,2.94065823 C10.1293582,3.55686076 9.67610286,4.14116456 8.80832545,4.12255696 C9.65763406,5.30837975 11.8336186,5.36293671 12.4479629,3.80078481 C13.0195982,2.34736709 12.2118444,1.46167089 12.0966709,1.34546835 C11.5241378,0.807493671 10.7092017,0.400531646 9.690724,0.172683544 C5.83856697,-0.635164557 1.2195697,2.28724051 0.201091959,6.89129114 C-0.743510554,11.2762278 1.7999263,14.2936962 4.52689693,14.7900253 C7.64812527,15.3640759 10.9704584,14.0588861 13.0796218,12.2974937 C13.3299767,12.0747089 13.8648026,11.5162278 13.5648127,11.0316709" id="Fill-4" fill="#0DAFAC" mask="url(#mask-4)"></path>
                </g>
                <path d="M52.6766281,6.01888608 C53.7576946,4.93344304 55.0954005,3.96192405 56.7501543,3.18293671 C49.6890421,0.0445822785 47.363768,5.98356962 47.363768,5.98356962 C50.0361018,4.78053165 51.9930257,5.62673418 52.6766281,6.01888608" id="Fill-7" fill="#0DAFAC"></path>
                <g id="Group-11" transform="translate(0.000000, 0.053165)">
                    <mask id="mask-6" fill="white">
                        <use xlink:href="#path-5"></use>
                    </mask>
                    <g id="Clip-10"></g>
                    <path d="M35.3344442,19.0633418 C32.6206839,22.9176456 30.3186241,20.3478987 31.9352859,14.8801772 C33.8920817,11.0148608 33.4932068,7.71498734 27.759027,9.2316962 C27.759027,9.2316962 28.4929056,15.6704304 25.1494103,20.419038 C21.805915,25.1676456 19.1147276,19.6946076 24.2931759,11.2438481 C24.2931759,11.2438481 17.6163174,8.61789873 16.72943,17.2801772 C16.72943,17.2801772 16.3930155,18.1827089 15.872939,19.2568861 C15.6758102,19.610557 15.4634189,19.9618228 15.2348674,20.3158734 C11.769401,25.6828354 10.2992071,16.9639747 13.9550048,6.81536709 C13.9571851,6.81587342 27.6111483,9.8403038 24.1486318,0.600683544 C24.1486318,0.600683544 18.9746725,3.74232911 15.0526162,4.086 C15.5760273,2.91131646 16.1695942,1.73283544 16.8381907,0.569037975 C16.8381907,0.569037975 11.9158689,-2.0361519 9.16889043,4.69891139 C9.16786439,4.69891139 4.17282168,5.15764557 1.80009303,6.77156962 C-0.572635615,8.38549367 -0.732955118,12.0247342 2.12073204,13.5120759 C2.12073204,13.5120759 3.12779503,10.5380253 6.15809016,8.77422785 C6.25364058,8.71751899 8.87903277,7.06751899 11.5082726,6.68131646 C11.5082726,6.68131646 9.28650082,7.28207595 7.91198552,9.29270886 C6.1475732,18.4104304 7.93879094,24.5482785 10.7459213,24.7462532 C12.7983957,24.8908101 15.3522213,22.8715696 16.9617008,20.3365063 C17.4433006,22.1091646 19.146535,25.9689114 24.496974,22.9241013 C25.5032675,22.3515696 26.5063545,21.5876456 27.4527526,20.7122025 C28.4484009,22.4549873 30.5056207,24.0485316 34.6504571,21.6899241 C41.768643,17.6392911 48.7585733,4.50637975 38.0706492,7.33334177 C38.0706492,7.33334177 38.8401828,14.0843544 35.3344442,19.0633418 Z" id="Fill-9" fill="#0DAFAC" mask="url(#mask-6)"></path>
                </g>
            </g>
        </g>
    </g>
</svg>