<?xml version="1.0" encoding="UTF-8"?>
<svg width="580px" height="347px" viewBox="0 0 580 347" version="1.1" xmlns="http://www.w3.org/2000/svg" xmlns:xlink="http://www.w3.org/1999/xlink">
    <!-- Generator: Sketch 41.2 (35397) - http://www.bohemiancoding.com/sketch -->
    <title>Macbook</title>
    <desc>Created with Sketch.</desc>
    <defs>
        <rect id="path-1" x="123.143155" y="-72.7267097" width="307.425299" height="453.387543" rx="16.992"></rect>
        <filter x="-50%" y="-50%" width="200%" height="200%" filterUnits="objectBoundingBox" id="filter-2">
            <feMorphology radius="0.5" operator="dilate" in="SourceAlpha" result="shadowSpreadOuter1"></feMorphology>
            <feOffset dx="0" dy="2" in="shadowSpreadOuter1" result="shadowOffsetOuter1"></feOffset>
            <feGaussianBlur stdDeviation="7" in="shadowOffsetOuter1" result="shadowBlurOuter1"></feGaussianBlur>
            <feComposite in="shadowBlurOuter1" in2="SourceAlpha" operator="out" result="shadowBlurOuter1"></feComposite>
            <feColorMatrix values="0 0 0 0 0.662468112   0 0 0 0 0.662468112   0 0 0 0 0.662468112  0 0 0 0.5 0" type="matrix" in="shadowBlurOuter1"></feColorMatrix>
        </filter>
        <path d="M0.867642798,6.73472155e-08 C0.547731119,-0.000152802541 0.288391463,0.248143703 0.288391463,0.574759249 L0.288391463,3.78588173 C0.288391463,3.78588173 15.5725757,9.37070501 69.790734,10.1006552 C124.154778,10.0127229 464.887038,10.1006552 464.887038,10.1006552 C464.887038,10.1006552 531.386617,10.4709851 553.58938,3.55477782 L553.58938,0.837307452 C553.58938,0.52074383 553.324116,0.263991553 553.010129,0.263841514 L0.867642798,6.73472155e-08 Z" id="path-3"></path>
        <filter x="-50%" y="-50%" width="200%" height="200%" filterUnits="objectBoundingBox" id="filter-4">
            <feMorphology radius="0.5" operator="dilate" in="SourceAlpha" result="shadowSpreadOuter1"></feMorphology>
            <feOffset dx="0" dy="2" in="shadowSpreadOuter1" result="shadowOffsetOuter1"></feOffset>
            <feGaussianBlur stdDeviation="7" in="shadowOffsetOuter1" result="shadowBlurOuter1"></feGaussianBlur>
            <feComposite in="shadowBlurOuter1" in2="SourceAlpha" operator="out" result="shadowBlurOuter1"></feComposite>
            <feColorMatrix values="0 0 0 0 0.662468112   0 0 0 0 0.662468112   0 0 0 0 0.662468112  0 0 0 0.5 0" type="matrix" in="shadowBlurOuter1"></feColorMatrix>
        </filter>
        <rect id="path-5" x="0" y="0" width="415.283706" height="259.738249" rx="0.576"></rect>
    </defs>
    <g id="Page-1" stroke="none" stroke-width="1" fill="none" fill-rule="evenodd">
        <g id="Product" transform="translate(-691.000000, -2037.000000)">
            <g id="Group-9" transform="translate(145.000000, 2051.000000)">
                <g id="Macbook" transform="translate(559.000000, 0.000000)">
                    <g id="Body">
                        <g id="Rectangle-2" transform="translate(276.855804, 153.967062) rotate(-90.000000) translate(-276.855804, -153.967062) ">
                            <use fill="black" fill-opacity="1" filter="url(#filter-2)" xlink:href="#path-1"></use>
                            <use stroke="#CCCDCE" stroke-width="1" fill="#FFFFFF" fill-rule="evenodd" xlink:href="#path-1"></use>
                        </g>
                        <g id="Group" transform="translate(274.548673, 11.255324)">
                            <path d="M2.59552317,3.7517747 C1.8004279,3.7517747 1.15356585,3.10444927 1.15356585,2.30878443 C1.15356585,1.5131196 1.8004279,0.865794163 2.59552317,0.865794163 C3.39061843,0.865794163 4.03748048,1.5131196 4.03748048,2.30878443 C4.03748048,3.10444927 3.39061843,3.7517747 2.59552317,3.7517747" id="Fill-9" fill="#BAC1C4"></path>
                            <path d="M2.3071317,0 C1.03491336,0 0,1.03565473 0,2.30878443 C0,3.58191414 1.03491336,4.61756887 2.3071317,4.61756887 C3.57935004,4.61756887 4.6142634,3.58191414 4.6142634,2.30878443 C4.6142634,1.03565473 3.57935004,0 2.3071317,0 M2.3071317,1.31930539 C2.85326274,1.31930539 3.29590243,1.76226218 3.29590243,2.30878443 C3.29590243,2.85530669 2.85326274,3.29826348 2.3071317,3.29826348 C1.76100067,3.29826348 1.31836097,2.85530669 1.31836097,2.30878443 C1.31836097,1.76226218 1.76100067,1.31930539 2.3071317,1.31930539" id="Fill-11" fill="#D0D8DB"></path>
                        </g>
                        <rect id="Rectangle-3" fill="#DEE3E6" x="68.9255596" y="24.5308346" width="416.437272" height="260.892641" rx="0.576"></rect>
                        <g id="Group-2" transform="translate(0.000000, 306.709620)">
                            <g id="Path-37">
                                <use fill="black" fill-opacity="1" filter="url(#filter-4)" xlink:href="#path-3"></use>
                                <use stroke="#CCCDCE" stroke-width="1" fill="#FFFFFF" fill-rule="evenodd" xlink:href="#path-3"></use>
                            </g>
                            <path d="M554,3.46317665 C554,3.46317665 548.294389,10.38953 429.862496,10.1421602 C390.820823,10.0606135 334.883428,10.0590572 277.432587,10.0936148 C219.303786,10.0590522 163.244447,10.060477 124.137437,10.1421602 C5.70560831,10.38953 0,3.46317665 0,3.46317665 L277.144196,3.46317665 L554,3.46317665 Z" id="Combined-Shape" fill="#FFFFFF"></path>
                            <path d="M224.65695,0 L329.631442,0 L329.631442,3.46317665 C329.631442,3.46317665 316.409369,4.61756887 277.351477,4.61756887 C238.293585,4.61756887 224.65695,3.46317665 224.65695,3.46317665 L224.65695,0 Z" id="Rectangle-10" stroke="#CCD2D5" stroke-width="0.9" fill="#F6F8F8"></path>
                        </g>
                    </g>
                    <g id="Screen" transform="translate(69.502343, 25.108031)">
                        <mask id="mask-6" fill="white">
                            <use xlink:href="#path-5"></use>
                        </mask>
                        <use id="Mask" fill="#EEEEEE" xlink:href="#path-5"></use>
                    </g>
                </g>
            </g>
        </g>
    </g>
</svg>