<?xml version="1.0" encoding="UTF-8" standalone="no"?>
<svg
   xmlns:dc="http://purl.org/dc/elements/1.1/"
   xmlns:cc="http://creativecommons.org/ns#"
   xmlns:rdf="http://www.w3.org/1999/02/22-rdf-syntax-ns#"
   xmlns:svg="http://www.w3.org/2000/svg"
   xmlns="http://www.w3.org/2000/svg"
   xmlns:xlink="http://www.w3.org/1999/xlink"
   xmlns:sodipodi="http://sodipodi.sourceforge.net/DTD/sodipodi-0.dtd"
   xmlns:inkscape="http://www.inkscape.org/namespaces/inkscape"
   width="66px"
   height="30px"
   viewBox="0 0 66 30"
   version="1.1"
   id="svg41"
   sodipodi:docname="Logo.svg"
   inkscape:version="0.92.0 r15299">
  <metadata
     id="metadata45">
    <rdf:RDF>
      <cc:Work
         rdf:about="">
        <dc:format>image/svg+xml</dc:format>
        <dc:type
           rdf:resource="http://purl.org/dc/dcmitype/StillImage" />
        <dc:title>Logo</dc:title>
      </cc:Work>
    </rdf:RDF>
  </metadata>
  <sodipodi:namedview
     pagecolor="#ffffff"
     bordercolor="#666666"
     borderopacity="1"
     objecttolerance="10"
     gridtolerance="10"
     guidetolerance="10"
     inkscape:pageopacity="0"
     inkscape:pageshadow="2"
     inkscape:window-width="1920"
     inkscape:window-height="1017"
     id="namedview43"
     showgrid="false"
     inkscape:zoom="9.45"
     inkscape:cx="33"
     inkscape:cy="15"
     inkscape:window-x="-8"
     inkscape:window-y="-8"
     inkscape:window-maximized="1"
     inkscape:current-layer="Page-1" />
  <!-- Generator: Sketch 41.2 (35397) - http://www.bohemiancoding.com/sketch -->
  <title
     id="title10">Logo</title>
  <desc
     id="desc12">Created with Sketch.</desc>
  <defs
     id="defs17">
    <polygon
       id="path-1"
       points="0.0860411416 23.2911392 31.6739758 23.2911392 31.6739758 0.0989852041 0.0860411416 0.0989852041 0.0860411416 23.2911392" />
    <polygon
       id="path-3"
       points="13.6537067 14.9271105 13.6537067 0.0387444396 0.000122131917 0.0387444396 0.000122131917 14.9271105 13.6537067 14.9271105" />
    <polygon
       id="path-5"
       points="43.5628953 0.0734177215 4.52059621e-05 0.0734177215 4.52059621e-05 24.7535589 43.5628953 24.7535589 43.5628953 0.0734177215" />
  </defs>
  <g
     id="Page-1"
     transform="translate(0.42328041,0.21164022)"
     style="fill:none;fill-rule:evenodd;stroke:none;stroke-width:1">
    <g
       id="Homepage"
       transform="translate(-171,-31)"
       style="fill:#ffffff">
      <g
         id="Logo"
         transform="translate(171,31)"
         style="fill:#ffffff">
        <g
           id="Group-3"
           transform="translate(24.881587,6.635443)"
           style="fill:#ffffff">
          <mask
             id="mask-2"
             fill="white">
            <use
               xlink:href="#path-1"
               id="use19"
               x="0"
               y="0"
               width="100%"
               height="100%" />
          </mask>
          <g
             id="Clip-2"
             style="fill:#ffffff" />
          <path
             d="m 25.479797,20.582329 c 0.737085,-0.443038 1.090557,-1.487342 1.090557,-1.487342 -1.797759,-0.03747 -2.489441,-1.595696 -2.754802,-2.866709 2.153027,-0.161645 3.851131,0.327216 3.97323,1.632532 0.192384,2.056962 -2.308985,2.721519 -2.308985,2.721519 m -1.825847,-6.05443 h -7.7e-4 l -0.01065,0.0073 C 23.520051,13.756759 22.348564,6.0628354 26.826609,0.46625317 23.25841,-0.56564557 20.984566,0.466 19.38804,4.9810633 17.720717,9.6962532 19.067401,15.076 19.067401,15.076 c -1.250492,0.348101 -2.62924,0.759494 -9.04202,2.531646 -6.4127798,1.772151 -9.26646695,-0.632912 -9.26646695,-0.632912 -2.88575105,7.5 4.13624315,7.183545 9.20233945,4.841772 5.0660965,-2.341772 9.8971005,-4.694177 9.8971005,-4.694177 0,3.8e-4 1.581904,5.400886 7.802173,5.400886 6.220268,0 5.452274,-8.37405 -4.006577,-7.995316"
             id="Fill-1"
             mask="url(#mask-2)"
             inkscape:connector-curvature="0"
             style="fill:#ffffff" />
        </g>
        <g
           id="Group-6"
           transform="translate(51.430497,6.129114)"
           style="fill:#ffffff">
          <mask
             id="mask-4"
             fill="white">
            <use
               xlink:href="#path-3"
               id="use25"
               x="0"
               y="0"
               width="100%"
               height="100%" />
          </mask>
          <g
             id="Clip-5"
             style="fill:#ffffff" />
          <path
             d="m 13.564813,11.031671 c -0.384767,-0.621646 -1.511364,0.213924 -2.093645,0.573164 -0.0015,8.87e-4 -0.0031,0.0016 -0.0045,0.0025 -1.461985,0.966076 -3.2396079,1.629494 -4.6836378,1.379494 C 4.7459575,12.644962 4.0177222,9.5655949 4.9650181,6.3935696 5.9094923,3.3762278 7.5469316,1.0121772 9.0008371,1.1678734 10.090369,1.2615443 10.493091,2.1328101 10.309429,2.9406582 10.129358,3.5568608 9.6761029,4.1411646 8.8083255,4.122557 9.6576341,5.3083797 11.833619,5.3629367 12.447963,3.8007848 13.019598,2.3473671 12.211844,1.4616709 12.096671,1.3454683 11.524138,0.80749367 10.709202,0.40053165 9.690724,0.17268354 5.838567,-0.63516456 1.2195697,2.2872405 0.20109196,6.8912911 -0.74351055,11.276228 1.7999263,14.293696 4.5268969,14.790025 c 3.1212284,0.574051 6.4435611,-0.731139 8.5527251,-2.492531 0.250355,-0.222785 0.785181,-0.781266 0.485191,-1.265823"
             id="Fill-4"
             mask="url(#mask-4)"
             inkscape:connector-curvature="0"
             style="fill:#ffffff" />
        </g>
        <path
           d="M 52.676628,6.0188861 C 53.757695,4.933443 55.0954,3.9619241 56.750154,3.1829367 49.689042,0.04458228 47.363768,5.9835696 47.363768,5.9835696 c 2.672334,-1.2030379 4.629258,-0.3568354 5.31286,0.035316"
           id="Fill-7"
           inkscape:connector-curvature="0"
           style="fill:#ffffff" />
        <g
           id="Group-11"
           transform="translate(0,0.053165)"
           style="fill:#ffffff">
          <mask
             id="mask-6"
             fill="white">
            <use
               xlink:href="#path-5"
               id="use32"
               x="0"
               y="0"
               width="100%"
               height="100%" />
          </mask>
          <g
             id="Clip-10"
             style="fill:#ffffff" />
          <path
             d="m 35.334444,19.063342 c -2.71376,3.854304 -5.01582,1.284557 -3.399158,-4.183165 1.956796,-3.865316 1.557921,-7.1651897 -4.176259,-5.6484808 0,0 0.733879,6.4387338 -2.609617,11.1873418 -3.343495,4.748608 -6.034682,-0.72443 -0.856234,-9.17519 0,0 -6.676859,-2.6259493 -7.563746,6.036329 0,0 -0.336415,0.902532 -0.856491,1.976709 -0.197129,0.353671 -0.40952,0.704937 -0.638072,1.058987 -3.465466,5.366962 -4.93566,-3.351898 -1.279862,-13.5005059 0.0022,5.063e-4 13.656143,3.0249367 10.193627,-6.21468356 0,0 -5.17396,3.14164556 -9.096016,3.48531646 0.523411,-1.1746835 1.116978,-2.3531646 1.785575,-3.51696203 0,0 -4.922322,-2.60518987 -7.6693006,4.12987343 -0.00103,0 -4.9960687,0.4587342 -7.3687974,2.0726582 -2.37272861,1.6139241 -2.53304812,5.2531644 0.320639,6.7405064 0,0 1.007063,-2.974051 4.0373582,-4.7378481 0.09555,-0.056709 2.7209426,-1.7067089 5.3501828,-2.0929114 0,0 -2.2217722,0.6007594 -3.5962875,2.6113924 -1.7644123,9.1177211 0.026805,15.2555691 2.8339355,15.4535441 2.052475,0.144557 4.6063,-1.874683 6.21578,-4.409747 0.4816,1.772659 2.184834,5.632405 7.535273,2.587595 1.006293,-0.572531 2.00938,-1.336455 2.955779,-2.211899 0.995648,1.742785 3.052868,3.33633 7.197704,0.977722 7.118186,-4.050633 14.108116,-17.1835443 3.420192,-14.3565822 0,0 0.769534,6.7510122 -2.736205,11.7300002 z"
             id="Fill-9"
             mask="url(#mask-6)"
             inkscape:connector-curvature="0"
             style="fill:#ffffff" />
        </g>
      </g>
    </g>
  </g>
</svg>
