<?xml version="1.0" encoding="UTF-8"?>
<svg width="888px" height="325px" viewBox="0 0 888 325" version="1.1" xmlns="http://www.w3.org/2000/svg" xmlns:xlink="http://www.w3.org/1999/xlink">
    <!-- Generator: Sketch 41.2 (35397) - http://www.bohemiancoding.com/sketch -->
    <title>Group 34</title>
    <desc>Created with Sketch.</desc>
    <defs>
        <style type="text/css">@import url(https://fonts.googleapis.com/css?family=Open+Sans:300,400,600,700);</style>
        <rect id="path-1" x="0" y="114" width="887" height="210" rx="2"></rect>
        <mask id="mask-2" maskContentUnits="userSpaceOnUse" maskUnits="objectBoundingBox" x="0" y="0" width="887" height="210" fill="white">
            <use xlink:href="#path-1"></use>
        </mask>
        <rect id="path-3" x="679" y="280" width="90" height="20" rx="10"></rect>
        <mask id="mask-4" maskContentUnits="userSpaceOnUse" maskUnits="objectBoundingBox" x="0" y="0" width="90" height="20" fill="white">
            <use xlink:href="#path-3"></use>
        </mask>
        <rect id="path-5" x="679" y="212" width="90" height="20" rx="10"></rect>
        <mask id="mask-6" maskContentUnits="userSpaceOnUse" maskUnits="objectBoundingBox" x="0" y="0" width="90" height="20" fill="white">
            <use xlink:href="#path-5"></use>
        </mask>
        <rect id="path-7" x="0" y="0" width="90" height="20" rx="10"></rect>
        <mask id="mask-8" maskContentUnits="userSpaceOnUse" maskUnits="objectBoundingBox" x="0" y="0" width="90" height="20" fill="white">
            <use xlink:href="#path-7"></use>
        </mask>
    </defs>
    <g id="Courses" stroke="none" stroke-width="1" fill="none" fill-rule="evenodd">
        <g id="Course---Content" transform="translate(-59.000000, -697.000000)">
            <g id="Group-6" transform="translate(30.000000, 663.000000)">
                <g id="Group-34" transform="translate(30.000000, 35.000000)">
                    <text id="If-you’ve-never-buil" font-family="OpenSans, Open Sans" font-size="14" font-weight="normal" line-spacing="26" fill="#3C3F48">
                        <tspan x="0" y="47">If you’ve never built a website before and you have no coding or design experience, this is the place to start. In this project, we learn how </tspan>
                        <tspan x="0" y="73">to build a modern portfolio website for desktops, tablets, and mobile devices. </tspan>
                    </text>
                    <use id="Rectangle-10" stroke="#C5C5C5" mask="url(#mask-2)" stroke-width="2" xlink:href="#path-1"></use>
                    <text id="View-Detail" font-family="OpenSans, Open Sans" font-size="12" font-weight="normal" line-spacing="26" fill="#3C3F48">
                        <tspan x="781.417969" y="147">View Detail</tspan>
                    </text>
                    <polyline id="Shape" stroke="#3C3F48" points="853 144 857 148 853 152"></polyline>
                    <g id="Group-7" transform="translate(30.000000, 138.000000)" fill="#444444">
                        <path d="M6.3,10.7 L4.3,8.7 C3.9,8.3 3.9,7.7 4.3,7.3 C4.7,6.9 5.3,6.9 5.7,7.3 L7,8.6 L10.3,5.3 C10.7,4.9 11.3,4.9 11.7,5.3 C12.1,5.7 12.1,6.3 11.7,6.7 L7.7,10.7 C7.3,11.1 6.8,11.2 6.3,10.7 Z" id="Shape"></path>
                        <path d="M15,0 L12,0 L12,2 L14,2 L14,13 L2,13 L2,2 L4,2 L4,0 L1,0 C0.4,0 0,0.4 0,1 L0,14 C0,14.6 0.4,15 1,15 L15,15 C15.6,15 16,14.6 16,14 L16,1 C16,0.4 15.6,0 15,0 Z" id="Shape"></path>
                    </g>
                    <rect id="Rectangle-path" fill="#444444" x="35" y="137" width="6" height="4"></rect>
                    <text id="Reflections-on-affor" font-family="OpenSans-Bold, Open Sans" font-size="14" font-weight="bold" line-spacing="24" fill="#3C3F48">
                        <tspan x="74" y="149">Reflections on affordable housing</tspan>
                        <tspan x="308.793945" y="149" font-family="OpenSans, Open Sans" font-weight="normal"> - Individual Assignment</tspan>
                    </text>
                    <path d="M59.5,140.5 L59.5,150.5" id="Line" stroke="#94939B" stroke-linecap="square"></path>
                    <use id="Rectangle-6" stroke="#5083C0" mask="url(#mask-4)" stroke-width="2" xlink:href="#path-3"></use>
                    <text id="5-POINTS" font-family="OpenSans-Semibold, Open Sans" font-size="12" font-weight="500" letter-spacing="1" fill="#5083C0">
                        <tspan x="693.87793" y="295">5 POINT</tspan>
                        <tspan x="747.524414" y="295">S</tspan>
                    </text>
                    <path d="M75.5,256.5 L856.5,256.5" id="Line" stroke="#C5C5C5" stroke-linecap="square"></path>
                    <path d="M89.6,283.1 L83,285.9 L76.4,283.1 C75.9,282.9 75,283 75,284 L75,295 C75,295.4 75.2,295.8 75.6,295.9 L82.6,298.9 C82.9,299 83.1,299 83.4,298.9 L90.4,295.9 C90.8,295.7 91,295.4 91,295 L91,284 C91,283 90.1,282.9 89.6,283.1 Z M77,285.5 L82,287.6 L82,296.4 L77,294.3 L77,285.5 Z M89,294.3 L84,296.4 L84,287.7 L89,285.6 L89,294.3 Z" id="Shape" fill="#444444"></path>
                    <text id="Ideas-&amp;-Thoughts---C" font-family="OpenSans-Bold, Open Sans" font-size="14" font-weight="bold" line-spacing="26" fill="#3C3F48">
                        <tspan x="120" y="293">Ideas &amp; Thoughts </tspan>
                        <tspan x="243.915039" y="293" font-family="OpenSans, Open Sans" font-weight="normal">- Case Studies</tspan>
                    </text>
                    <path d="M105.5,286.5 L105.5,296.5" id="Line" stroke="#94939B" stroke-linecap="square"></path>
                    <circle id="Oval-7" fill="#3C3F48" cx="59.5" cy="291.5" r="2.5"></circle>
                    <text id="View-Detail" font-family="OpenSans, Open Sans" font-size="12" font-weight="normal" line-spacing="26" fill="#3C3F48">
                        <tspan x="781.417969" y="291">View Detail</tspan>
                    </text>
                    <polyline id="Shape" stroke="#3C3F48" points="853 288 857 292 853 296"></polyline>
                    <path d="M75,186.5 L856.5,186.5" id="Line" stroke="#C5C5C5" stroke-linecap="square"></path>
                    <path d="M90,214 L76,214 C75.4,214 75,214.4 75,215 L75,227 C75,227.6 75.4,228 76,228 L90,228 C90.6,228 91,227.6 91,227 L91,215 C91,214.4 90.6,214 90,214 Z M89,226 L77,226 L77,216 L89,216 L89,226 Z" id="Shape" fill="#444444"></path>
                    <polygon id="Shape" fill="#444444" points="81 218 81 224 85 221"></polygon>
                    <circle id="Oval-7" fill="#3C3F48" cx="59.5" cy="221.5" r="2.5"></circle>
                    <text id="Dr.-Norbergh---Video" font-family="OpenSans-Bold, Open Sans" font-size="14" font-weight="bold" line-spacing="26" fill="#3C3F48">
                        <tspan x="120" y="223">Dr. Norbergh</tspan>
                        <tspan x="211.21875" y="223" font-family="OpenSans, Open Sans" font-weight="normal"> - Video</tspan>
                    </text>
                    <use id="Rectangle-6" stroke="#5083C0" mask="url(#mask-6)" stroke-width="2" xlink:href="#path-5"></use>
                    <text id="5-POINTS" font-family="OpenSans-Semibold, Open Sans" font-size="12" font-weight="500" letter-spacing="1" fill="#5083C0">
                        <tspan x="693.87793" y="227">5 POINT</tspan>
                        <tspan x="747.524414" y="227">S</tspan>
                    </text>
                    <path d="M105.5,216.5 L105.5,226.5" id="Line" stroke="#94939B" stroke-linecap="square"></path>
                    <text id="View-Detail" font-family="OpenSans, Open Sans" font-size="12" font-weight="normal" line-spacing="26" fill="#3C3F48">
                        <tspan x="781.417969" y="222">View Detail</tspan>
                    </text>
                    <polyline id="Shape" stroke="#3C3F48" points="853 219 857 223 853 227"></polyline>
                    <g id="Group-18" transform="translate(679.000000, 137.000000)">
                        <use id="Rectangle-6" stroke="#5083C0" mask="url(#mask-8)" stroke-width="2" xlink:href="#path-7"></use>
                        <text id="10-POINTS" font-family="OpenSans-Semibold, Open Sans" font-size="12" font-weight="500" letter-spacing="1" fill="#5083C0">
                            <tspan x="10.953125" y="15">10 POINT</tspan>
                            <tspan x="72.4492188" y="15">S</tspan>
                        </text>
                    </g>
                    <text id="01-INTRODUCTION---20" font-family="OpenSans-Bold, Open Sans" font-size="16" font-weight="bold" letter-spacing="2" fill="#5083C0">
                        <tspan x="30" y="17">01 INTRODUCTION - 20 POINTS</tspan>
                        <tspan x="326.773438" y="17"> </tspan>
                    </text>
                    <circle id="Oval-5" stroke="#5083C0" fill="#5083C0" cx="10" cy="10" r="10"></circle>
                    <polygon id="Shape" fill="#FFFFFF" points="9.23529412 15 8 13.8333333 11.5294118 10.5 8 7.16666667 9.23529412 6 14 10.5"></polygon>
                </g>
            </g>
        </g>
    </g>
</svg>