<?xml version="1.0" encoding="UTF-8"?>
<svg width="240px" height="436px" viewBox="0 0 240 436" version="1.1" xmlns="http://www.w3.org/2000/svg" xmlns:xlink="http://www.w3.org/1999/xlink">
    <!-- Generator: Sketch 41.2 (35397) - http://www.bohemiancoding.com/sketch -->
    <title>Bottom Left</title>
    <desc>Created with Sketch.</desc>
    <defs></defs>
    <g id="VIsio" stroke="none" stroke-width="1" fill="none" fill-rule="evenodd">
        <g id="Visio-+-Home+-Chat-Public" transform="translate(-10.000000, -374.000000)">
            <g id="Bottom-Left" transform="translate(10.000000, 374.000000)">
                <g id="Group-12" transform="translate(15.000000, 387.000000)"></g>
                <g id="Group-13">
                    <rect id="Rectangle-41" fill="#FFFFFF" x="0" y="0" width="240" height="436" rx="2"></rect>
                    <path d="M15,387.5 L224,387.5" id="Line" stroke="#E3E3E3" stroke-linecap="square"></path>
                    <text id="Write-message" font-family="OpenSans-Italic, Open Sans" font-size="12" font-style="italic" font-weight="normal" fill="#BEBDC4">
                        <tspan x="15" y="414.5">Write message</tspan>
                    </text>
                    <path d="M216,403 C211.6,403 208,406.6 208,411 C208,415.4 211.6,419 216,419 C220.4,419 224,415.4 224,411 C224,406.6 220.4,403 216,403 L216,403 Z M220,412 L217,412 L217,415 L215,415 L215,412 L212,412 L212,410 L215,410 L215,407 L217,407 L217,410 L220,410 L220,412 L220,412 Z" id="Shape" fill="#BDBCC4" opacity="0.300000012"></path>
                    <g id="Group-10" transform="translate(17.000000, 107.000000)">
                        <rect id="Rectangle-24" fill="#50C07E" x="38" y="0" width="170" height="41" rx="4"></rect>
                        <text id="Yes-it’s-possible-to" font-family="OpenSans, Open Sans" font-size="12" font-weight="normal" fill="#FFFFFF">
                            <tspan x="49.4199219" y="25">Yes it’s possible to see that!</tspan>
                        </text>
                    </g>
                    <g id="Group-11" transform="translate(10.185185, 15.000000)"></g>
                    <g id="Group-7" transform="translate(30.000000, 17.000000)" fill="#3C3F48">
                        <g id="ui-24px-glyph-2_chat-round-content">
                            <path d="M20,8.18181818 C20,3.68181818 15.5,0 10,0 C4.5,0 0,3.68181818 0,8.18181818 C0,12.6818182 4.5,16.3636364 10,16.3636364 C10.8333333,16.3636364 11.6666667,16.2818182 12.5,16.1181818 L17.1666667,17.9181818 C17.25,17.9181818 17.3333333,18 17.5,18 C17.6666667,18 17.8333333,17.9181818 18,17.8363636 C18.25,17.6727273 18.3333333,17.3454545 18.3333333,17.1 L17.9166667,13.2545455 C19.25,11.7818182 20,9.98181818 20,8.18181818 Z M11.6666667,10.6363636 L5.83333333,10.6363636 L5.83333333,9 L11.6666667,9 L11.6666667,10.6363636 Z M14.1666667,7.36363636 L5.83333333,7.36363636 L5.83333333,5.72727273 L14.1666667,5.72727273 L14.1666667,7.36363636 Z" id="Shape"></path>
                        </g>
                    </g>
                    <g id="Group-9" transform="translate(44.000000, 11.000000)">
                        <circle id="Oval-2" fill="#FF3E24" cx="7" cy="7" r="7"></circle>
                        <text id="2" font-family="OpenSans-Bold, Open Sans" font-size="8" font-weight="bold" fill="#FFFFFF">
                            <tspan x="5" y="10">2</tspan>
                        </text>
                    </g>
                    <rect id="Rectangle" fill="#3C3F48" x="80" y="0" width="78" height="50"></rect>
                    <rect id="Rectangle" fill="#3C3F48" x="159" y="0" width="81" height="50"></rect>
                    <g id="files-24px-glyph_folder-16-(1)" opacity="0.5" transform="translate(110.000000, 17.000000)" fill="#FFFFFF">
                        <g id="Group">
                            <path d="M15.75,4 L15.75,2.66666667 C15.75,2.29866667 15.41475,2 15,2 L10.15125,2 L8.874,0.296666667 C8.7345,0.111333333 8.5005,0 8.25,0 L3,0 C2.58525,0 2.25,0.298666667 2.25,0.666666667 L2.25,4 L15.75,4 Z" id="Shape"></path>
                            <path d="M17.25,5.33333333 L0.75,5.33333333 C0.33525,5.33333333 0,5.632 0,6 L0,15.3333333 C0,15.7013333 0.33525,16 0.75,16 L17.25,16 C17.66475,16 18,15.7013333 18,15.3333333 L18,6 C18,5.632 17.66475,5.33333333 17.25,5.33333333 Z" id="Shape"></path>
                        </g>
                    </g>
                    <g id="business-24px-glyph_chart-pie-36" opacity="0.5" transform="translate(196.000000, 15.000000)" fill="#FFFFFF">
                        <g id="Group">
                            <path d="M10.5,0 L9.75,0 L9.75,7.79166667 L18,7.79166667 L18,7.08333333 C18,3.1875 14.625,0 10.5,0 Z" id="Shape"></path>
                            <path d="M8.25,2.83333333 L7.5,2.83333333 C3.375,2.83333333 0,6.02083333 0,9.91666667 C0,13.8125 3.375,17 7.5,17 C11.625,17 15,13.8125 15,9.91666667 L15,9.20833333 L8.25,9.20833333 L8.25,2.83333333 Z" id="Shape"></path>
                        </g>
                    </g>
                    <path d="M79.5,0.5 L79.5,48.5104155" id="Line" stroke="#353841" stroke-linecap="square"></path>
                    <path d="M158.5,0.5 L158.5,48.5104155" id="Line" stroke="#353841" stroke-linecap="square"></path>
                    <path d="M79.5,49.5 L239.5,49.5" id="Line" stroke="#353841" stroke-linecap="square"></path>
                    <g id="Group-8" transform="translate(15.000000, 63.000000)">
                        <text id="Public" font-family="OpenSans-Bold, Open Sans" font-size="14" font-weight="bold" text-decoration="underline" fill="#3C3F48">
                            <tspan x="0" y="15">Public</tspan>
                        </text>
                        <text id="Private-(2)" font-family="OpenSans, Open Sans" font-size="14" font-weight="normal" fill="#3C3F48">
                            <tspan x="68" y="15">Private </tspan>
                            <tspan x="116.917969" y="15" font-size="12">(2)</tspan>
                        </text>
                        <path d="M56.5,6.5 L56.5,14.5" id="Line" stroke="#B9B8C3" stroke-linecap="square"></path>
                    </g>
                </g>
            </g>
        </g>
    </g>
</svg>