<?xml version="1.0" encoding="UTF-8"?>
<svg width="888px" height="207px" viewBox="0 0 888 207" version="1.1" xmlns="http://www.w3.org/2000/svg" xmlns:xlink="http://www.w3.org/1999/xlink">
    <!-- Generator: Sketch 41.2 (35397) - http://www.bohemiancoding.com/sketch -->
    <title>Group 38</title>
    <desc>Created with Sketch.</desc>
    <defs>
        <style type="text/css">@import url(https://fonts.googleapis.com/css?family=Open+Sans:300,400,600,700);</style>
        <rect id="path-1" x="0" y="140" width="887" height="66" rx="2"></rect>
        <mask id="mask-2" maskContentUnits="userSpaceOnUse" maskUnits="objectBoundingBox" x="0" y="0" width="887" height="66" fill="white">
            <use xlink:href="#path-1"></use>
        </mask>
    </defs>
    <g id="Courses" stroke="none" stroke-width="1" fill="none" fill-rule="evenodd">
        <g id="Course---Content" transform="translate(-59.000000, -1061.000000)">
            <g id="Group-6" transform="translate(30.000000, 663.000000)">
                <g id="Group-38" transform="translate(30.000000, 399.000000)">
                    <use id="Rectangle-10" stroke="#C5C5C5" mask="url(#mask-2)" stroke-width="2" xlink:href="#path-1"></use>
                    <text id="View-Detail" font-family="OpenSans, Open Sans" font-size="12" font-weight="normal" line-spacing="26" fill="#3C3F48">
                        <tspan x="781.417969" y="173">View Detail</tspan>
                    </text>
                    <polyline id="Shape" stroke="#3C3F48" points="853 170 857 174 853 178"></polyline>
                    <text id="Counting-Your-Chicke" font-family="OpenSans-Bold, Open Sans" font-size="14" font-weight="bold" line-spacing="26" fill="#3C3F48">
                        <tspan x="74" y="175">Counting Your Chicken Before They Hatch </tspan>
                        <tspan x="368.027344" y="175" font-family="OpenSans, Open Sans" font-weight="normal">- Live Session</tspan>
                    </text>
                    <path d="M43,179 L31,179 C30.2,179 29.7,178.1 30.2,177.4 L33,173.7 L33,168 C33,166.3 34.3,165 36,165 L43,165 C44.7,165 46,166.3 46,168 L46,176 C46,177.7 44.7,179 43,179 Z M33,177 L43,177 C43.6,177 44,176.6 44,176 L44,168 C44,167.4 43.6,167 43,167 L36,167 C35.4,167 35,167.4 35,168 L35,174 C35,174.2 34.9,174.4 34.8,174.6 L33,177 Z" id="Shape" fill="#444444"></path>
                    <rect id="Rectangle-path" fill="#444444" x="37" y="169" width="5" height="2"></rect>
                    <rect id="Rectangle-path" fill="#444444" x="37" y="173" width="5" height="2"></rect>
                    <path d="M59.5,168.5 L59.5,177.5" id="Line" stroke="#94939B" stroke-linecap="square"></path>
                    <text id="Business-cards-repre" font-family="OpenSans, Open Sans" font-size="14" font-weight="normal" line-spacing="26" fill="#3C3F48">
                        <tspan x="0" y="57">Business cards represent not only your business, but it also tells people your professionalism in the industry. In the business world </tspan>
                        <tspan x="0" y="83">today, the usage of business cards is far beyond just informing people who you are, it serves as one of the most cost-effective marketing </tspan>
                        <tspan x="0" y="109">and advertising tool for promoting your business.</tspan>
                    </text>
                    <text id="@Chat" font-family="OpenSans-Bold, Open Sans" font-size="14" font-weight="bold" fill="#373B44">
                        <tspan x="756.720703" y="17">Due date: 29/04/17</tspan>
                    </text>
                    <text id="02-RESSOURCES-UNITS" font-family="OpenSans-Bold, Open Sans" font-size="16" font-weight="bold" letter-spacing="1.14285707" fill="#5083C0">
                        <tspan x="30" y="17">02 RESSOURCES UNITS - 25 POINTS</tspan>
                    </text>
                    <circle id="Oval-5" stroke="#5083C0" fill="#5083C0" cx="10" cy="10" r="10"></circle>
                    <polygon id="Shape" fill="#FFFFFF" points="9.23529412 15 8 13.8333333 11.5294118 10.5 8 7.16666667 9.23529412 6 14 10.5"></polygon>
                </g>
            </g>
        </g>
    </g>
</svg>