<?xml version="1.0" encoding="UTF-8"?>
<svg width="32px" height="32px" viewBox="0 0 32 32" version="1.1" xmlns="http://www.w3.org/2000/svg" xmlns:xlink="http://www.w3.org/1999/xlink">
    <!-- Generator: Sketch 41.2 (35397) - http://www.bohemiancoding.com/sketch -->
    <title>ui-32px-glyph-1_check-circle-08</title>
    <desc>Created with Sketch.</desc>
    <defs></defs>
    <g id="Page-1" stroke="none" stroke-width="1" fill="none" fill-rule="evenodd">
        <g id="Form-Copy" transform="translate(-704.000000, -551.000000)" fill="#0DAFAC">
            <g id="ui-32px-glyph-1_check-circle-08" transform="translate(704.000000, 551.000000)">
                <path d="M16,0 C7.2,0 0,7.2 0,16 C0,24.8 7.2,32 16,32 C24.8,32 32,24.8 32,16 C32,7.2 24.8,0 16,0 Z M23.7,11.7 L13.7,21.7 C13.5,21.9 13.3,22 13,22 C12.7,22 12.5,21.9 12.3,21.7 L8.3,17.7 C7.9,17.3 7.9,16.7 8.3,16.3 C8.7,15.9 9.3,15.9 9.7,16.3 L13,19.6 L22.3,10.3 C22.7,9.9 23.3,9.9 23.7,10.3 C24.1,10.7 24.1,11.3 23.7,11.7 Z" id="Shape"></path>
            </g>
        </g>
    </g>
</svg>