<?xml version="1.0" encoding="UTF-8"?>
<svg width="357px" height="242px" viewBox="0 0 357 242" version="1.1" xmlns="http://www.w3.org/2000/svg" xmlns:xlink="http://www.w3.org/1999/xlink">
    <!-- Generator: Sketch 41.2 (35397) - http://www.bohemiancoding.com/sketch -->
    <title>Chrome-bar</title>
    <desc>Created with Sketch.</desc>
    <defs>
        <rect id="path-1" x="0" y="0" width="352" height="237" rx="2"></rect>
        <filter x="-50%" y="-50%" width="200%" height="200%" filterUnits="objectBoundingBox" id="filter-2">
            <feOffset dx="0" dy="1" in="SourceAlpha" result="shadowOffsetOuter1"></feOffset>
            <feGaussianBlur stdDeviation="1" in="shadowOffsetOuter1" result="shadowBlurOuter1"></feGaussianBlur>
            <feColorMatrix values="0 0 0 0 0.838116497   0 0 0 0 0.838116497   0 0 0 0 0.838116497  0 0 0 1 0" type="matrix" in="shadowBlurOuter1"></feColorMatrix>
        </filter>
        <linearGradient x1="87.1933762%" y1="50%" x2="0%" y2="50%" id="linearGradient-3">
            <stop stop-color="#FFFFFF" stop-opacity="1.00273004" offset="0%"></stop>
            <stop stop-color="#FFFFFF" offset="42.5321705%"></stop>
            <stop stop-color="#FFFFFF" stop-opacity="0.0830502717" offset="100%"></stop>
        </linearGradient>
        <path d="M145.41524,9.21352867 C145.185909,8.70900082 145.449169,8.30000019 145.992687,8.30000019 L157.507313,8.30000019 C158.055559,8.30000019 158.688175,8.71398562 158.91524,9.21352867 L161.58476,15.0864715 C161.814091,15.5909994 161.550831,16 161.007313,16 L149.492687,16 C148.944441,16 148.311825,15.5860146 148.08476,15.0864715 L145.41524,9.21352867 Z" id="path-4"></path>
        <mask id="mask-5" maskContentUnits="userSpaceOnUse" maskUnits="objectBoundingBox" x="0" y="0" width="16.3351517" height="7.69999981" fill="white">
            <use xlink:href="#path-4"></use>
        </mask>
        <path d="M0,2.24197149 C0,1.14183602 0.885925305,0.25 1.99172824,0.25 L297.995092,0.25 C298.82623,0.25 299.5,0.919467099 299.5,1.74631697 L299.5,12.253683 C299.5,13.0800761 298.828736,13.75 297.995092,13.75 L1.99172824,13.75 C0.891727107,13.75 0,12.8642273 0,11.7580285 L0,2.24197149 Z" id="path-6"></path>
        <mask id="mask-7" maskContentUnits="userSpaceOnUse" maskUnits="objectBoundingBox" x="0" y="0" width="299.5" height="13.5" fill="white">
            <use xlink:href="#path-6"></use>
        </mask>
    </defs>
    <g id="Page-1" stroke="none" stroke-width="1" fill="none" fill-rule="evenodd">
        <g id="Product" transform="translate(-800.000000, -2087.000000)">
            <g id="Group-9" transform="translate(145.000000, 2051.000000)">
                <g id="Macbook" transform="translate(559.000000, 0.000000)">
                    <g id="Screen" transform="translate(69.502343, 25.108031)">
                        <g id="Chrome-bar" transform="translate(29.000000, 12.000000)">
                            <g id="1440-background">
                                <use fill="black" fill-opacity="1" filter="url(#filter-2)" xlink:href="#path-1"></use>
                                <use fill="#FFFFFF" fill-rule="evenodd" xlink:href="#path-1"></use>
                            </g>
                            <rect id="1440-background" fill="#F2F2F2" x="8" y="42" width="336" height="188" rx="2"></rect>
                            <g id="Not-sure-what-these-grouped-would-be-called-XD" transform="translate(6.000000, 6.500000)">
                                <circle id="Close" fill="#D4D4D4" cx="3" cy="3" r="3"></circle>
                                <circle id="Minimize" fill="#D4D4D4" cx="13" cy="3" r="3"></circle>
                                <circle id="Expand" fill="#D5D5D5" cx="23" cy="3" r="3"></circle>
                            </g>
                            <g id="Current-Tab" transform="translate(36.000000, 4.000000)">
                                <text id="Twic-Homepage" font-family=".SFNSText, .SF NS Text" font-size="6" font-weight="normal" fill="#4D4D4D">
                                    <tspan x="19" y="10">Twic Homepage</tspan>
                                </text>
                                <rect id="Logo-mark" fill="#0DAFAC" x="8" y="4" width="8" height="7" rx="1"></rect>
                                <path d="M92.6522441,14.122221 L92.6522441,0.326770835 L113.473477,0.333097668 C114.022473,0.333264488 114.650389,0.731201722 114.883417,1.23812279 L120.806148,14.1222209 L92.6522441,14.122221 Z" id="Path-2-Copy" fill="url(#linearGradient-3)"></path>
                                <path d="M0.256952632,14.1132843 L5.31600652,1.22836742 C5.51718184,0.715993507 6.13057699,0.300793236 6.67922318,0.300989211 L96.4157928,0.333042898 C96.9675013,0.333239967 97.5761274,0.746071752 97.7769201,1.25953415 L102.806956,14.1222209" id="Path-2" stroke="#BEBEBE" stroke-width="0.5"></path>
                            </g>
                            <use id="New-Tab" stroke="#BEBEBE" mask="url(#mask-5)" fill="#FFFFFF" xlink:href="#path-4"></use>
                            <g id="Navigation-items" transform="translate(5.500000, 24.000000)" fill="#6D6D6D">
                                <path d="M33.4287246,1.8187257 C33.0968224,1.46831536 32.7969925,1.23073657 32.5342418,1.08316998 C32.3833298,0.998414488 32.3441122,0.984227886 32.2096847,0.946743463 C31.1066965,0.639180886 29.9348591,1.07885412 29.3023526,2.01779042 C29.1655749,2.22083277 29.0569779,2.44326873 28.9797002,2.68110496 C28.8098595,3.2038211 28.8071623,3.75352646 28.9634039,4.26783802 C29.2138168,5.09213975 29.8464726,5.74911126 30.681105,6.02029977 C32.0730281,6.47256301 33.5680365,5.71081817 34.0202998,4.31889504 L34.6860393,4.53520693 C34.1143103,6.29480786 32.224394,7.25776832 30.4647931,6.68603932 C29.4101984,6.34338075 28.6098645,5.51228648 28.2936278,4.4713079 C28.0960829,3.82103544 28.0994989,3.1248386 28.3139607,2.46479307 C28.4114136,2.16486389 28.5487202,1.88362277 28.7217931,1.62670142 C29.5218362,0.439062145 31.0026463,-0.116537619 32.3977033,0.272466813 C32.4243695,0.278334416 32.4764888,0.292885226 32.54193,0.316558004 C32.6434554,0.353283921 32.7550609,0.404344802 32.8770175,0.472838253 C33.1987918,0.653553782 33.549178,0.930279282 33.9229848,1.32266457 L34.9835823,0.258202522 L34.9835824,2.9979105 L32.2538209,2.9979104 L33.4287246,1.8187257 Z" id="Refresh"></path>
                                <g id="Arrow-back">
                                    <path d="M0.711695373,2.89955771 C0.504588592,2.89955771 0.336695373,3.06745093 0.336695373,3.27455771 C0.336695373,3.48166449 0.504588592,3.64955771 0.711695373,3.64955771 L6.58530682,3.64955771 C6.7924136,3.64955771 6.96030682,3.48166449 6.96030682,3.27455771 C6.96030682,3.06745093 6.7924136,2.89955771 6.58530682,2.89955771 L0.711695373,2.89955771 Z" id="Line"></path>
                                    <path d="M0.464444909,2.98442835 C0.317773735,3.13065005 0.317409365,3.36808663 0.463631065,3.51475781 C0.609852765,3.66142898 0.847289352,3.66179335 0.993960526,3.51557165 L3.8421103,0.676150028 C3.98878148,0.529928328 3.98914585,0.29249174 3.84292415,0.145820566 C3.69670245,-0.000850607303 3.45926586,-0.00121497768 3.31259469,0.145006722 L0.464444909,2.98442835 Z" id="Line-Copy"></path>
                                    <path d="M0.994496299,3.03416711 C0.847681267,2.88808986 0.610245153,2.88868794 0.464167895,3.03550297 C0.318090638,3.182318 0.318688722,3.41975412 0.465503754,3.56583138 L3.33680421,6.42270298 C3.48361925,6.56878024 3.72105536,6.56818215 3.86713262,6.42136712 C4.01320987,6.27455209 4.01261179,6.03711598 3.86579676,5.89103872 L0.994496299,3.03416711 Z" id="Line-Copy-2"></path>
                                </g>
                                <g id="Arrow-forward" opacity="0.200000003" transform="translate(17.500000, 3.500000) scale(-1, 1) translate(-17.500000, -3.500000) translate(14.000000, 0.000000)">
                                    <path d="M0.711695373,2.89955771 C0.504588592,2.89955771 0.336695373,3.06745093 0.336695373,3.27455771 C0.336695373,3.48166449 0.504588592,3.64955771 0.711695373,3.64955771 L6.58530682,3.64955771 C6.7924136,3.64955771 6.96030682,3.48166449 6.96030682,3.27455771 C6.96030682,3.06745093 6.7924136,2.89955771 6.58530682,2.89955771 L0.711695373,2.89955771 Z" id="Line"></path>
                                    <path d="M0.464444909,2.98442835 C0.317773735,3.13065005 0.317409365,3.36808663 0.463631065,3.51475781 C0.609852765,3.66142898 0.847289352,3.66179335 0.993960526,3.51557165 L3.8421103,0.676150028 C3.98878148,0.529928328 3.98914585,0.29249174 3.84292415,0.145820566 C3.69670245,-0.000850607303 3.45926586,-0.00121497768 3.31259469,0.145006722 L0.464444909,2.98442835 Z" id="Line-Copy"></path>
                                    <path d="M0.994496299,3.03416711 C0.847681267,2.88808986 0.610245153,2.88868794 0.464167895,3.03550297 C0.318090638,3.182318 0.318688722,3.41975412 0.465503754,3.56583138 L3.33680421,6.42270298 C3.48361925,6.56878024 3.72105536,6.56818215 3.86713262,6.42136712 C4.01320987,6.27455209 4.01261179,6.03711598 3.86579676,5.89103872 L0.994496299,3.03416711 Z" id="Line-Copy-2"></path>
                                </g>
                            </g>
                            <g id="URL-Bar" transform="translate(46.500000, 20.500000)">
                                <use id="Rectangle-4" stroke="#BEBEBE" mask="url(#mask-7)" fill="#FFFFFF" xlink:href="#path-6"></use>
                                <g id="Secured-lock" transform="translate(4.500000, 4.000000)" fill="#0C8043">
                                    <rect id="Rectangle-5" x="0" y="2.25" width="4" height="3.5" rx="0.5"></rect>
                                    <path d="M1,3.4485361 C1,3.45349371 3.00461102,3.45000076 3.00461102,3.45000076 C2.99885361,3.45000076 3,1.95462799 3,1.95462799 C3,1.40016203 2.5514683,0.950000763 2,0.950000763 C1.44907697,0.950000763 1,1.40011366 1,1.95462799 L1,3.4485361 Z M2,0.450000763 C2.82842712,0.450000763 3.5,1.12483597 3.5,1.95462799 L3.5,3.4485361 C3.5,3.72548739 3.27451241,3.95000076 3.00461102,3.95000076 L0.995388985,3.95000076 C0.721793203,3.95000076 0.5,3.73106009 0.5,3.4485361 L0.5,1.95462799 C0.5,1.12364532 1.17325856,0.450000763 2,0.450000763 Z" id="Rectangle-5-Copy"></path>
                                </g>
                                <text id="https://www.twic.com" font-family=".SFNSText, .SF NS Text" font-size="7.19999981" font-weight="normal">
                                    <tspan x="13.5" y="9.5" fill="#009055">https</tspan>
                                    <tspan x="32.2874995" y="9.5" fill="#808080">://</tspan>
                                    <tspan x="40.1062493" y="9.5" fill="#160000">www.twic.com</tspan>
                                    <tspan x="91.5398417" y="9.5" fill="#929292">/product</tspan>
                                </text>
                            </g>
                        </g>
                    </g>
                </g>
            </g>
        </g>
    </g>
</svg>